<svg width="86" height="28" viewBox="0 0 86 28" fill="none" xmlns="http://www.w3.org/2000/svg">
<g filter="url(#filter0_di_0_1)">
<rect x="1" y="1" width="84" height="25" rx="6" fill="#6E6D70"/>
<path d="M20.127 18.1641C22.3076 18.1641 23.9414 16.8447 24.249 14.8828L24.2559 14.8145H22.7383L22.7178 14.876C22.3486 16.127 21.4395 16.8105 20.127 16.8105C18.3018 16.8105 17.1191 15.3477 17.1191 13.0645V13.0576C17.1191 10.7744 18.2949 9.3252 20.127 9.3252C21.4531 9.3252 22.3691 10.0293 22.6973 11.1846L22.7383 11.3213H24.2559L24.2422 11.2598C23.9346 9.31152 22.3008 7.97168 20.127 7.97168C17.3311 7.97168 15.5537 9.92676 15.5537 13.0576V13.0645C15.5537 16.1953 17.3311 18.1641 20.127 18.1641ZM28.5557 18.1436C30.6133 18.1436 31.9668 16.7217 31.9668 14.4043V14.3906C31.9668 12.0869 30.5996 10.6719 28.5488 10.6719C26.5049 10.6719 25.1445 12.0938 25.1445 14.3906V14.4043C25.1445 16.7148 26.4912 18.1436 28.5557 18.1436ZM28.5625 16.9062C27.4072 16.9062 26.6553 15.9971 26.6553 14.4043V14.3906C26.6553 12.8184 27.4141 11.9092 28.5488 11.9092C29.7041 11.9092 30.4561 12.8184 30.4561 14.3906V14.4043C30.4561 15.9902 29.7178 16.9062 28.5625 16.9062ZM33.1084 18H34.585V13.8096C34.585 12.6885 35.2549 11.9365 36.2939 11.9365C37.3193 11.9365 37.8252 12.5449 37.8252 13.625V18H39.3086V13.3447C39.3086 11.6904 38.3994 10.6719 36.8203 10.6719C35.7334 10.6719 34.9951 11.1641 34.6191 11.8955H34.585V10.8086H33.1084V18ZM43.2598 18.1436C43.5605 18.1436 43.8408 18.1094 44.0117 18.082V16.9404C43.9023 16.9541 43.7725 16.9678 43.6152 16.9678C42.9932 16.9678 42.665 16.749 42.665 16.0176V11.9844H44.0117V10.8086H42.665V8.93555H41.1543V10.8086H40.1221V11.9844H41.1543V16.1064C41.1543 17.542 41.8379 18.1436 43.2598 18.1436ZM46.0352 9.70117C46.5205 9.70117 46.8965 9.31836 46.8965 8.85352C46.8965 8.38184 46.5205 7.99902 46.0352 7.99902C45.5566 7.99902 45.1738 8.38184 45.1738 8.85352C45.1738 9.31836 45.5566 9.70117 46.0352 9.70117ZM45.2969 18H46.7734V10.8086H45.2969V18ZM48.2979 18H49.7744V13.8096C49.7744 12.6885 50.4443 11.9365 51.4834 11.9365C52.5088 11.9365 53.0146 12.5449 53.0146 13.625V18H54.498V13.3447C54.498 11.6904 53.5889 10.6719 52.0098 10.6719C50.9229 10.6719 50.1846 11.1641 49.8086 11.8955H49.7744V10.8086H48.2979V18ZM58.374 18.1436C59.4678 18.1436 60.1992 17.6445 60.5752 16.9199H60.6094V18H62.0928V10.8086H60.6094V15.0059C60.6094 16.127 59.9395 16.8721 58.9004 16.8721C57.875 16.8721 57.3691 16.2705 57.3691 15.1836V10.8086H55.8926V15.4707C55.8926 17.125 56.7949 18.1436 58.374 18.1436ZM66.625 18.1436C68.3682 18.1436 69.4756 17.1045 69.708 15.9629L69.7217 15.8877H68.3203L68.2998 15.9424C68.1152 16.4824 67.5342 16.9336 66.6592 16.9336C65.4834 16.9336 64.7383 16.1406 64.7109 14.7803H69.8037V14.2812C69.8037 12.1211 68.5664 10.6719 66.5498 10.6719C64.5332 10.6719 63.2344 12.1758 63.2344 14.4248V14.4316C63.2344 16.7012 64.5127 18.1436 66.625 18.1436ZM66.5566 11.8818C67.5205 11.8818 68.2178 12.4902 68.3408 13.7344H64.7314C64.8613 12.5312 65.5996 11.8818 66.5566 11.8818Z" fill="#DFDEDF"/>
<rect x="1.25" y="1.25" width="83.5" height="24.5" rx="5.75" stroke="black" stroke-opacity="0.12" stroke-width="0.5"/>
</g>
<defs>
<filter id="filter0_di_0_1" x="0" y="0.5" width="86" height="27" filterUnits="userSpaceOnUse" color-interpolation-filters="sRGB">
<feFlood flood-opacity="0" result="BackgroundImageFix"/>
<feColorMatrix in="SourceAlpha" type="matrix" values="0 0 0 0 0 0 0 0 0 0 0 0 0 0 0 0 0 0 127 0" result="hardAlpha"/>
<feOffset dy="0.5"/>
<feGaussianBlur stdDeviation="0.5"/>
<feColorMatrix type="matrix" values="0 0 0 0 0 0 0 0 0 0 0 0 0 0 0 0 0 0 0.1 0"/>
<feBlend mode="normal" in2="BackgroundImageFix" result="effect1_dropShadow_0_1"/>
<feBlend mode="normal" in="SourceGraphic" in2="effect1_dropShadow_0_1" result="shape"/>
<feColorMatrix in="SourceAlpha" type="matrix" values="0 0 0 0 0 0 0 0 0 0 0 0 0 0 0 0 0 0 127 0" result="hardAlpha"/>
<feOffset dy="0.5"/>
<feGaussianBlur stdDeviation="0.25"/>
<feComposite in2="hardAlpha" operator="arithmetic" k2="-1" k3="1"/>
<feColorMatrix type="matrix" values="0 0 0 0 1 0 0 0 0 1 0 0 0 0 1 0 0 0 0.5 0"/>
<feBlend mode="normal" in2="shape" result="effect2_innerShadow_0_1"/>
</filter>
</defs>
</svg>
